<svg width="91" height="90" viewBox="0 0 91 90" fill="none" xmlns="http://www.w3.org/2000/svg">
<rect x="0.0195312" width="90" height="90" rx="15" fill="#FDE1C2"/>
<path d="M26.5366 61.8037C26.5384 61.8109 26.5965 61.8064 26.6007 61.8066C26.6827 61.8091 26.7639 61.8289 26.8432 61.8487C26.9142 61.8664 26.9862 61.8841 27.0549 61.9098C27.0613 61.9122 27.0715 61.9144 27.0761 61.919" stroke="#FDE1C2" stroke-width="0.282666" stroke-linecap="round"/>
<path d="M26.7656 61.8477C26.8536 61.8657 26.9349 61.9065 27.0171 61.9411C27.0312 61.9471 27.0516 61.9605 27.0673 61.9605" stroke="#FDE1C2" stroke-width="0.282666" stroke-linecap="round"/>
<path d="M26.6426 61.7817C26.7515 61.7817 26.858 61.7919 26.9663 61.8008C26.9672 61.8009 27.0107 61.8062 27.0112 61.8024C27.0116 61.8001 27.0088 61.796 27.008 61.794" stroke="#FDE1C2" stroke-width="0.282666" stroke-linecap="round"/>
<path d="M26.6777 61.8081C26.7311 61.8081 26.8878 61.8397 26.8371 61.8228" stroke="#FDE1C2" stroke-width="0.282666" stroke-linecap="round"/>
<path d="M26.6935 61.8831C26.7038 61.8831 26.7124 61.8876 26.7195 61.8947C26.7205 61.8957 26.7229 61.8968 26.7199 61.8968C26.7151 61.8968 26.7107 61.8937 26.7062 61.8926C26.7044 61.8922 26.6972 61.8896 26.7022 61.8923C26.7054 61.894 26.7084 61.8956 26.7114 61.898C26.7141 61.9001 26.7173 61.9017 26.7198 61.904C26.7211 61.9051 26.7208 61.9056 26.7189 61.9051C26.7156 61.9044 26.7101 61.9023 26.7079 61.8995C26.7067 61.8981 26.7017 61.8979 26.7001 61.8974C26.6957 61.896 26.6912 61.8957 26.6869 61.8944C26.6823 61.893 26.6796 61.8913 26.6759 61.8881C26.6751 61.8875 26.6692 61.8842 26.6714 61.8831" stroke="#FDE1C2" stroke-width="0.141333" stroke-linecap="round"/>
<path d="M71 58.5C71 73.1355 59.1355 85 44.5 85C29.8645 85 18 73.1355 18 58.5C18 43.8645 29.8645 32 44.5 32C59.1355 32 71 43.8645 71 58.5Z" fill="#F4BB79"/>
<path d="M30.3027 54.7597C30.3027 50.7443 33.6514 49.5014 35.3257 49.7404C39.344 49.7402 40.6835 53.3256 40.3486 54.7597" stroke="#FDE1C2" stroke-width="1.54068" stroke-linecap="round"/>
<path d="M48.8081 54.7597C48.8081 50.7443 52.1567 49.5014 53.831 49.7404C57.8494 49.7402 59.1888 53.3256 58.854 54.7597" stroke="#FDE1C2" stroke-width="1.54068" stroke-linecap="round"/>
<path d="M58.8799 65.5364C58.8799 70.4303 49.401 71.9451 44.6616 71.6538C33.2869 71.6541 29.4954 67.2843 30.4433 65.5364" stroke="#FDE1C2" stroke-width="1.54068" stroke-linecap="round"/>
<path d="M30.4375 65.4973L45.2566 65.9213L58.8454 65.4973" stroke="#FDE1C2" stroke-width="1.41333"/>
<path d="M51.5292 70.5427L55.6582 69.9434C55.8831 69.9108 56.0529 70.1436 55.9557 70.3489C54.8259 72.7347 54.3787 74.3345 54.9863 75.1439C57.9547 79.0984 56.5909 80.2 55.0277 80.4269C51.5829 80.9269 52.3914 77.3902 52.7292 76.7227C52.7439 76.6936 52.7554 76.6628 52.7615 76.6308C52.9473 75.6566 53.0329 75.1744 53.0689 74.9567C53.0714 74.9218 53.0771 74.8799 53.0822 74.8481C53.0542 72.8778 52.0546 71.6778 51.3803 71.0389C51.2049 70.8728 51.2901 70.5774 51.5292 70.5427Z" fill="#FDE1C2" stroke="#FDE1C2" stroke-width="0.423999" stroke-linecap="round"/>
<path d="M17.4134 25.16C16.6027 25.16 15.8507 25.016 15.1574 24.728C14.4747 24.4293 13.8774 24.0187 13.3654 23.496C12.8534 22.9627 12.4587 22.3493 12.1814 21.656C11.904 20.952 11.7654 20.2 11.7654 19.4C11.7654 18.6 11.904 17.8533 12.1814 17.16C12.4587 16.456 12.8534 15.8427 13.3654 15.32C13.8774 14.7973 14.4747 14.3867 15.1574 14.088C15.8507 13.7893 16.6027 13.64 17.4134 13.64C18.32 13.64 19.104 13.7893 19.7654 14.088C20.4267 14.3867 21.0134 14.792 21.5254 15.304L20.2774 16.552C19.9467 16.1893 19.5414 15.9067 19.0614 15.704C18.592 15.5013 18.0427 15.4 17.4134 15.4C16.8587 15.4 16.352 15.496 15.8934 15.688C15.4347 15.88 15.0347 16.1573 14.6934 16.52C14.3627 16.872 14.1067 17.2933 13.9254 17.784C13.744 18.2747 13.6534 18.8133 13.6534 19.4C13.6534 19.9867 13.744 20.5253 13.9254 21.016C14.1067 21.5067 14.3627 21.9333 14.6934 22.296C15.0347 22.648 15.4347 22.92 15.8934 23.112C16.352 23.304 16.8587 23.4 17.4134 23.4C18.096 23.4 18.672 23.2987 19.1414 23.096C19.6214 22.8827 20.0267 22.5947 20.3574 22.232L21.6054 23.48C21.0934 24.0027 20.4907 24.4133 19.7974 24.712C19.104 25.0107 18.3094 25.16 17.4134 25.16ZM24.0073 25V17.32H25.7673V25H24.0073ZM25.7673 20.728L25.1593 20.424C25.1593 19.4533 25.3726 18.6693 25.7993 18.072C26.2366 17.464 26.8926 17.16 27.7673 17.16C28.1513 17.16 28.4979 17.2293 28.8073 17.368C29.1166 17.5067 29.4046 17.7307 29.6713 18.04L28.5193 19.224C28.3806 19.0747 28.2259 18.968 28.0553 18.904C27.8846 18.84 27.6873 18.808 27.4633 18.808C26.9726 18.808 26.5673 18.9627 26.2473 19.272C25.9273 19.5813 25.7673 20.0667 25.7673 20.728ZM34.5045 25.16C33.8112 25.16 33.1818 24.984 32.6165 24.632C32.0618 24.28 31.6192 23.8053 31.2885 23.208C30.9685 22.6 30.8085 21.9227 30.8085 21.176C30.8085 20.4187 30.9685 19.7413 31.2885 19.144C31.6192 18.536 32.0618 18.056 32.6165 17.704C33.1818 17.3413 33.8112 17.16 34.5045 17.16C35.0912 17.16 35.6085 17.288 36.0565 17.544C36.5152 17.7893 36.8778 18.1307 37.1445 18.568C37.4112 19.0053 37.5445 19.5013 37.5445 20.056V22.264C37.5445 22.8187 37.4112 23.3147 37.1445 23.752C36.8885 24.1893 36.5312 24.536 36.0725 24.792C35.6138 25.0373 35.0912 25.16 34.5045 25.16ZM34.7925 23.496C35.4432 23.496 35.9658 23.2773 36.3605 22.84C36.7658 22.4027 36.9685 21.8427 36.9685 21.16C36.9685 20.7013 36.8778 20.296 36.6965 19.944C36.5152 19.592 36.2592 19.32 35.9285 19.128C35.6085 18.9253 35.2298 18.824 34.7925 18.824C34.3658 18.824 33.9872 18.9253 33.6565 19.128C33.3365 19.32 33.0805 19.592 32.8885 19.944C32.7072 20.296 32.6165 20.7013 32.6165 21.16C32.6165 21.6187 32.7072 22.024 32.8885 22.376C33.0805 22.728 33.3365 23.0053 33.6565 23.208C33.9872 23.4 34.3658 23.496 34.7925 23.496ZM36.8565 25V22.936L37.1605 21.064L36.8565 19.208V17.32H38.6165V25H36.8565ZM44.1618 25L40.6578 17.32H42.6098L45.2818 23.576H44.1298L46.8178 17.32H48.6898L45.1858 25H44.1618ZM50.742 25V17.32H52.502V25H50.742ZM51.622 15.912C51.3233 15.912 51.0727 15.8107 50.87 15.608C50.678 15.4053 50.582 15.1547 50.582 14.856C50.582 14.5573 50.678 14.3067 50.87 14.104C51.0727 13.9013 51.3233 13.8 51.622 13.8C51.9313 13.8 52.182 13.9013 52.374 14.104C52.566 14.3067 52.662 14.5573 52.662 14.856C52.662 15.1547 52.566 15.4053 52.374 15.608C52.182 15.8107 51.9313 15.912 51.622 15.912ZM60.74 25V20.568C60.74 20.056 60.5747 19.6347 60.244 19.304C59.924 18.9733 59.508 18.808 58.996 18.808C58.6547 18.808 58.3507 18.8827 58.084 19.032C57.8173 19.1813 57.6093 19.3893 57.46 19.656C57.3107 19.9227 57.236 20.2267 57.236 20.568L56.548 20.184C56.548 19.5973 56.676 19.08 56.932 18.632C57.188 18.1733 57.54 17.816 57.988 17.56C58.4467 17.2933 58.9587 17.16 59.524 17.16C60.1 17.16 60.612 17.3093 61.06 17.608C61.508 17.896 61.86 18.2747 62.116 18.744C62.372 19.2027 62.5 19.6827 62.5 20.184V25H60.74ZM55.476 25V17.32H57.236V25H55.476ZM68.4885 28.36C67.6778 28.36 66.9685 28.2107 66.3605 27.912C65.7525 27.624 65.2618 27.2133 64.8885 26.68L66.0405 25.528C66.3498 25.912 66.7018 26.2 67.0965 26.392C67.4912 26.584 67.9658 26.68 68.5205 26.68C69.2138 26.68 69.7632 26.4987 70.1685 26.136C70.5738 25.784 70.7765 25.2987 70.7765 24.68V22.792L71.0805 21.096L70.7765 19.384V17.32H72.5365V24.68C72.5365 25.416 72.3658 26.056 72.0245 26.6C71.6832 27.1547 71.2085 27.5867 70.6005 27.896C69.9925 28.2053 69.2885 28.36 68.4885 28.36ZM68.4085 24.84C67.7258 24.84 67.1072 24.6747 66.5525 24.344C66.0085 24.0027 65.5765 23.5387 65.2565 22.952C64.9472 22.3653 64.7925 21.7093 64.7925 20.984C64.7925 20.2587 64.9472 19.608 65.2565 19.032C65.5765 18.456 66.0085 18.0027 66.5525 17.672C67.1072 17.3307 67.7258 17.16 68.4085 17.16C69.0165 17.16 69.5498 17.2827 70.0085 17.528C70.4672 17.7733 70.8245 18.1147 71.0805 18.552C71.3365 18.9787 71.4645 19.48 71.4645 20.056V21.944C71.4645 22.5093 71.3312 23.0107 71.0645 23.448C70.8085 23.8853 70.4512 24.2267 69.9925 24.472C69.5338 24.7173 69.0058 24.84 68.4085 24.84ZM68.7605 23.176C69.1872 23.176 69.5605 23.0853 69.8805 22.904C70.2005 22.7227 70.4458 22.472 70.6165 22.152C70.7978 21.8213 70.8885 21.4373 70.8885 21C70.8885 20.5627 70.7978 20.184 70.6165 19.864C70.4458 19.5333 70.2005 19.2773 69.8805 19.096C69.5605 18.9147 69.1872 18.824 68.7605 18.824C68.3338 18.824 67.9552 18.9147 67.6245 19.096C67.3045 19.2773 67.0538 19.5333 66.8725 19.864C66.6912 20.184 66.6005 20.5627 66.6005 21C66.6005 21.4267 66.6912 21.8053 66.8725 22.136C67.0538 22.4667 67.3045 22.7227 67.6245 22.904C67.9552 23.0853 68.3338 23.176 68.7605 23.176ZM78.0036 25.16C77.577 25.16 77.1663 25.1067 76.7716 25C76.377 24.8827 76.0143 24.7227 75.6836 24.52C75.353 24.3067 75.065 24.0507 74.8196 23.752L75.9396 22.632C76.2063 22.9413 76.5103 23.176 76.8516 23.336C77.2036 23.4853 77.5983 23.56 78.0356 23.56C78.4303 23.56 78.729 23.5013 78.9316 23.384C79.1343 23.2667 79.2356 23.096 79.2356 22.872C79.2356 22.6373 79.1396 22.456 78.9476 22.328C78.7556 22.2 78.505 22.0933 78.1956 22.008C77.897 21.912 77.577 21.816 77.2356 21.72C76.905 21.624 76.585 21.496 76.2756 21.336C75.977 21.1653 75.7316 20.936 75.5396 20.648C75.3476 20.36 75.2516 19.9867 75.2516 19.528C75.2516 19.0373 75.3636 18.616 75.5876 18.264C75.8223 17.912 76.1476 17.64 76.5636 17.448C76.9903 17.256 77.497 17.16 78.0836 17.16C78.7023 17.16 79.2463 17.272 79.7156 17.496C80.1956 17.7093 80.5956 18.0347 80.9156 18.472L79.7956 19.592C79.5716 19.3147 79.3156 19.1067 79.0276 18.968C78.7396 18.8293 78.409 18.76 78.0356 18.76C77.6836 18.76 77.4116 18.8133 77.2196 18.92C77.0276 19.0267 76.9316 19.1813 76.9316 19.384C76.9316 19.5973 77.0276 19.7627 77.2196 19.88C77.4116 19.9973 77.657 20.0987 77.9556 20.184C78.265 20.2693 78.585 20.3653 78.9156 20.472C79.257 20.568 79.577 20.7067 79.8756 20.888C80.185 21.0587 80.4356 21.2933 80.6276 21.592C80.8196 21.88 80.9156 22.2587 80.9156 22.728C80.9156 23.4747 80.6543 24.0667 80.1316 24.504C79.609 24.9413 78.8996 25.16 78.0036 25.16Z" fill="#4F565C"/>
</svg>
